<svg xmlns="http://www.w3.org/2000/svg" width="19.56" height="12.07" viewBox="0 0 19.56 12.07">
  <title>BET</title>
  <g id="Layer_1" data-name="Layer 1">
    <g id="onDark">
      <g id="Domestic">
        <g id="BET">
          <g id="Logo-_-BET-White" data-name="Logo- -BET-White">
            <g id="BET-2">
              <path id="bet-3" d="M14.38,6.05a1.41,1.41,0,0,0,.69-.64A4.53,4.53,0,0,0,15,6a4.76,4.76,0,0,0,0,.67A1.43,1.43,0,0,0,14.38,6.05Zm-.69,1.07c0,.41-.45.39-.45.39H11.32V6.73h1.92c.5,0,.45.39.45.39ZM11.32,4.58h1.91c.5,0,.45.39.45.39,0,.41-.45.39-.45.39H11.32ZM25.18,3H17.77a2.63,2.63,0,0,0-1.41.29,2.55,2.55,0,0,0-.74.69,2.94,2.94,0,0,0-.34.6h0A1.5,1.5,0,0,0,14,3.08,6.34,6.34,0,0,0,13.27,3H9.78v6H13.2c.89,0,1.27-.1,1.61-.4a1.55,1.55,0,0,0,.46-1.19v0a2.22,2.22,0,0,0,1.29,1.42,5.31,5.31,0,0,0,1.72.21H19.7V7.53h-1c-1.23,0-1.63.1-1.85-.77h2.87V5.38H16.82a1,1,0,0,1,1-.79h2.83v4.5h1.79V4.58h2.25Zm4.15,2.34H26.86L26.1,3l-.76,2.34H22.87l2,1.4L24.1,9l2-1.41,2,1.41L27.3,6.77Z" transform="translate(-9.78)" style="fill: #fff"/>
            </g>
          </g>
        </g>
      </g>
    </g>
    <g id="onLight">
      <g id="Domestic-2">
        <g id="BET-4">
          <g id="Logo-_-BET-White-2" data-name="Logo- -BET-White-2">
            <g id="BET-5">
              <path id="bet-6" d="M14.38,6.05a1.41,1.41,0,0,0,.69-.64A4.53,4.53,0,0,0,15,6a4.76,4.76,0,0,0,0,.67A1.43,1.43,0,0,0,14.38,6.05Zm-.69,1.07c0,.41-.45.39-.45.39H11.32V6.73h1.92c.5,0,.45.39.45.39ZM11.32,4.58h1.91c.5,0,.45.39.45.39,0,.41-.45.39-.45.39H11.32ZM25.18,3H17.77a2.63,2.63,0,0,0-1.41.29,2.55,2.55,0,0,0-.74.69,2.94,2.94,0,0,0-.34.6h0A1.5,1.5,0,0,0,14,3.08,6.34,6.34,0,0,0,13.27,3H9.78v6H13.2c.89,0,1.27-.1,1.61-.4a1.55,1.55,0,0,0,.46-1.19v0a2.22,2.22,0,0,0,1.29,1.42,5.31,5.31,0,0,0,1.72.21H19.7V7.53h-1c-1.23,0-1.63.1-1.85-.77h2.87V5.38H16.82a1,1,0,0,1,1-.79h2.83v4.5h1.79V4.58h2.25Zm4.15,2.34H26.86L26.1,3l-.76,2.34H22.87l2,1.4L24.1,9l2-1.41,2,1.41L27.3,6.77Z" transform="translate(-9.78)"/>
            </g>
          </g>
        </g>
      </g>
    </g>
  </g>
  <g id="spacer">
    <rect width="19.56" height="12.07" style="fill: none"/>
  </g>
</svg>
