<svg xmlns="http://www.w3.org/2000/svg" width="295.18" height="893.02" viewBox="0 0 295.18 893.02">
  <title>E_Entertainment</title>
  <g id="Layer_2" data-name="Layer 2">
    <rect x="22.78" y="692.2" width="232.2" height="199.9"/>
    <polygon points="152.77 519.64 152.77 365.36 264.82 365.36 268.93 248.8 154.42 248.8 154.42 131.84 273.05 131.84 277.67 0 0 0 22.71 645.09 254.98 645.09 259.62 519.64 152.77 519.64"/>
  </g>
  <g id="Layer_10" data-name="Layer 10">
    <path d="M282.64,872.29a3.63,3.63,0,0,1-3.9,3.54h-3.64V868.7h3.64a3.67,3.67,0,0,1,3.9,3.59m.14,13.19h2.43l-4.71-8c2.47-.69,4.23-2.42,4.23-5.22A5.59,5.59,0,0,0,279,866.8h-6v18.68h2.09v-7.77h3.08ZM293,876.16a14.68,14.68,0,1,1-14.68-14.86A14.9,14.9,0,0,1,293,876.16m2.19,0A16.87,16.87,0,1,0,278.31,893a16.87,16.87,0,0,0,16.87-16.86"/>
  </g>
</svg>
