<svg xmlns="http://www.w3.org/2000/svg" width="1365.67" height="886.16" viewBox="0 0 1365.67 886.16">
  <title>Fox</title>
  <g id="Layer_1" data-name="Layer 1">
    <g id="g6349">
      <g id="g6351">
        <path id="path6353" d="M512.11,309.75v76.43H673.66V546H512.11V735.34H346.22V149.94a.77.77,0,0,1,.87-.87H698.85l11.29,160.68h-198Z" transform="translate(-346.22)" style="fill: #002486"/>
        <path id="path6355" d="M1183.75,239.19q82.55,84.27,82.57,203.43,0,120-82.57,204.29T984.58,731.17q-117.46,0-200-84.26T702,442.62q0-119.16,82.56-203.43t200-84.27q116.6,0,199.17,84.27ZM936.91,560.08q0,19.6,14.47,34a47.52,47.52,0,0,0,34.9,14.47q20.43,0,34.47-14.47t14-34V322.6a48.3,48.3,0,0,0-14-34.9,46.19,46.19,0,0,0-34.47-14.47,49.4,49.4,0,0,0-49.37,49.37V560.08Z" transform="translate(-346.22)" style="fill: #002486"/>
        <path id="path6357" d="M1525.15,737.09l-83.38-148.53L1361,737.09H1178.6l173.71-304-164.16-284h187.61l68.62,126.81,69.48-126.81h181.52L1534.7,431.35l177.19,305.73H1525.15Z" transform="translate(-346.22)" style="fill: #002486"/>
      </g>
    </g>
  </g>
  <g id="Layer_2" data-name="Layer 2">
    <rect width="1365.67" height="886.16" style="fill: none"/>
  </g>
</svg>
